# xmcd
#
# Track frame offsets:
# 150
# 17771
# 40281
# 54629
# 64912
# 84433
# 102021
# 112430
# 124138
# 136571
# 154164
# 177616
# 193500
#
# Disc length: 2821 seconds
#
#
# Revision: 0
# Processed by: cddbd v1.5.1PL2 Copyright (c) Steve Scherf et al.
# Submitted via: FreeRIP 2.944 
#
DISCID=b40b030d
DTITLE=King Alex and The Untouchables - Sugar Bowl
DYEAR=1900
DGENRE=Blues
TTITLE0=Sugar Bowl
TTITLE1=Hoochi Coochi Man
TTITLE2=The Woman I Love
TTITLE3=18th and Vine
TTITLE4=Play The Blues That You Can Use
TTITLE5=Do The  Things We Use To Do
TTITLE6=Never Lose My Cool
TTITLE7=If Things Don't Change
TTITLE8=Your Love Is So Good
TTITLE9=Let's Do The Things We Used To Do
TTITLE10=Listen And Pay Attention
TTITLE11=Your Love I Hate To Lose
TTITLE12=My Love For You Will Never Grow Cold
EXTD=
EXTT0=
EXTT1=
EXTT2=
EXTT3=
EXTT4=
EXTT5=
EXTT6=
EXTT7=
EXTT8=
EXTT9=
EXTT10=
EXTT11=
EXTT12=
PLAYORDER=
